<svg xmlns="http://www.w3.org/2000/svg" width="512" height="512" fill="none">
  <g fill-rule="evenodd" clip-path="url(#a)" clip-rule="evenodd">
    <path fill="#7C3AED" d="M130.975 114.93 121.86 82 81 86.924l11.63 42.779 55.632 202.814 26.716 97.56 40.86-5.232-26.716-97.252-14.144-51.089-5.972-22.158-4.714-17.543-8.487-31.083-6.286-22.159-4.714-17.542 40.86-4.925 81.406-10.156 6.6-.923c5.658-.616 11.001-1.231 15.715 6.155l1.572 2.462 1.572 2.155c2.2 3.693 4.4 4.616 9.114 4l57.519-7.078 5.972 22.159 4.714 17.542-49.975 6.155c-7.229.924-11.943-1.231-16.029-7.078l-2.515-4.001c-.943-1.231-1.571-2.154-2.829-2.77-1.571-1.231-3.771-1.231-6.6-.923l-95.236 11.695 8.487 31.391 81.406-10.156 6.286-.923c5.972-.616 11.001-1.539 16.03 6.155l1.571 2.462 1.257 2.154c2.515 3.694 4.715 4.617 9.43 4.001l57.204-7.078 5.972 22.159 5.028 17.542-49.975 6.155c-7.543.923-11.943-1.231-16.029-7.078l-2.515-4.001c-.943-1.539-1.886-2.155-2.829-3.078-1.885-.923-4.086-.923-6.6-.615l-95.55 11.695 11.944 43.701 47.146-5.847 19.173-2.462 27.345-3.385h1.886c5.343-.616 7.229 2.769 7.543 4.308l1.257 4.617c1.258 4.001 3.458 7.694 12.258 6.463l53.118-6.463c30.488-5.232 38.032-29.545 31.117-54.166l-40.546-148.956-53.118 6.771-14.772 1.846-30.803 3.693c-5.971.616-10.057-1.846-11-5.847l-3.458-12.003c-.943-3.693-4.086-5.847-9.429-5.232l-1.572.308-92.092 11.387-40.86 4.924Z"/>
    <path fill="#C4B5FD" d="m164.292 236.803-8.487-31.083-6.286-22.159-4.714-17.542h.314l40.546-4.925-14.144-51.088-40.546 4.924L121.86 82 81 86.924l11.63 42.779 55.632 202.814 26.716 97.56 40.86-5.232-26.716-97.252-14.144-51.089-5.972-22.158-4.714-17.543Z"/>
    <path fill="#A78BFA" d="m205.152 231.571 47.775-5.847-8.487-31.084-47.775 5.848 2.829 11.079 5.658 20.004ZM185.665 161.094l47.774-5.847-14.143-51.088-47.461 5.847h-.314l14.144 51.088Z"/>
    <path fill="#8B5CF6" d="m219.296 104.159 14.144 51.088 33.631-4.309 6.6-.923c5.658-.615 11.001-1.231 15.715 6.155l.315.308-11.315-40.624v-.308l-3.458-12.003c-.943-3.693-4.086-5.847-9.429-5.232l-1.572.308-44.631 5.54Z"/>
    <path fill="#6D28D9" d="m278.386 115.853 11.315 40.625 1.257 2.154 1.571 2.154c2.201 3.694 4.401 4.617 9.115 4.001l57.205-7.078-11.944-43.394-11.944 1.538-14.772 1.847-30.803 3.693c-5.971.616-9.743-1.539-11-5.54Z"/>
    <path fill="#5B21B6" d="m346.905 114.315 11.944 43.394h.314l5.972 22.159 4.714 17.542 31.431 113.871c27.345-6.462 33.945-29.852 27.345-53.242l-40.546-148.956-41.174 5.232Z"/>
    <path fill="#8B5CF6" d="m309.502 227.878-10.686-38.162h-.315c-1.571-1.231-3.771-1.231-6.6-.923l-47.461 5.847 8.487 31.084 33.631-4.001 6.286-.923c5.972-.616 11.001-1.539 16.03 6.155l.628.923Z"/>
    <path fill="#4C1D95" d="m359.163 157.709 40.86-4.924-11.944-43.702-41.174 5.232 11.944 43.394h.314Zm70.719 105.254-40.546 5.232 11.944 43.086c25.459-5.847 32.688-26.467 28.602-48.318Zm-51.546-34.469 40.86-4.924-8.487-31.084-40.86 4.924 8.487 31.084Z"/>
    <path fill="#000" fill-opacity=".2" d="m359.163 157.709 40.86-4.924-11.944-43.702-41.174 5.232 11.944 43.394h.314Zm70.719 105.254-40.546 5.232 11.944 43.086c25.459-5.847 32.688-26.467 28.602-48.318Zm-51.546-34.469 40.86-4.924-8.487-31.084-40.86 4.924 8.487 31.084Z"/>
    <path fill="#000" fill-opacity=".2" d="m359.163 157.709 40.86-4.924-11.944-43.702-41.174 5.232 11.944 43.394h.314Zm70.719 105.254-40.546 5.232 11.944 43.086c25.459-5.847 32.688-26.467 28.602-48.318Zm-51.546-34.469 40.86-4.924-8.487-31.084-40.86 4.924 8.487 31.084Z"/>
    <path fill="#8B5CF6" d="m311.388 259.578-47.461 5.847 11.944 43.394 18.23-2.154 27.345-3.385h1.886c5.343-.616 7.229 2.769 7.543 4.308l1.257 4.617c.315 1.231.943 2.462 1.572 3.693l-15.087-55.089-.628-.616c-1.886-.923-4.086-.923-6.601-.615Z"/>
    <path fill="#A78BFA" d="m275.871 308.819-11.944-43.394-48.089 5.847 11.944 43.702 47.146-5.847.943-.308Z"/>
  </g>
  <defs>
    <clipPath id="a">
      <path fill="#fff" d="M0 0h512v512H0z"/>
    </clipPath>
  </defs>
</svg>
